PathFileType	4	(X/Y/Z)	Kaydara																																																																																																																									
DataRate	CameraRate	NumFrames	NumMarkers	Units	OrigDataRate	OrigDataStartFrame	OrigNumFrames																																																																																																																					
30	30	9	41	mm	30	43	111																																																																																																																					
Frame#	Time	PAIB_LFHD			PAIB_RFHD			PAIB_LBHD			PAIB_RBHD			PAIB_LFTShould			PAIB_RFTShould			PAIB_LRRShould			PAIB_RRRShould			PAIB_T10			PAIB_STRN			PAIB_TRUN			PAIB_LSHO			PAIB_LUPA			PAIB_LELB			PAIB_LFRM			PAIB_LWRA			PAIB_LWRB			PAIB_LFIN			PAIB_RSHO			PAIB_RUPA			PAIB_RELB			PAIB_RFRM			PAIB_RWRA			PAIB_RWRB			PAIB_RFIN			PAIB_LFWT			PAIB_RFWT			PAIB_LBWT			PAIB_RBWT			PAIB_LTHI			PAIB_LKNE			PAIB_LSHN			PAIB_LANK			PAIB_LHEE			PAIB_LTOE			PAIB_RTHI			PAIB_RKNE			PAIB_RSHN			PAIB_RANK			PAIB_RHEE			PAIB_RTOE		
		X1	Y1	Z1	X2	Y2	Z2	X3	Y3	Z3	X4	Y4	Z4	X5	Y5	Z5	X6	Y6	Z6	X7	Y7	Z7	X8	Y8	Z8	X9	Y9	Z9	X10	Y10	Z10	X11	Y11	Z11	X12	Y12	Z12	X13	Y13	Z13	X14	Y14	Z14	X15	Y15	Z15	X16	Y16	Z16	X17	Y17	Z17	X18	Y18	Z18	X19	Y19	Z19	X20	Y20	Z20	X21	Y21	Z21	X22	Y22	Z22	X23	Y23	Z23	X24	Y24	Z24	X25	Y25	Z25	X26	Y26	Z26	X27	Y27	Z27	X28	Y28	Z28	X29	Y29	Z29	X30	Y30	Z30	X31	Y31	Z31	X32	Y32	Z32	X33	Y33	Z33	X34	Y34	Z34	X35	Y35	Z35	X36	Y36	Z36	X37	Y37	Z37	X38	Y38	Z38	X39	Y39	Z39	X40	Y40	Z40	X41	Y41	Z41
																																																																																																																												
28	1.4	268.58624	1670.45456	-1892.87888	81.55396	1668.59085	-1903.14423	285.11089	1652.34711	-2021.54236	81.59408	1659.3927	-2020.51575	239.8019	1414.1011	-1943.11554	115.97041	1413.31848	-1955.9108	261.10172	1496.89606	-2075.59662	109.69198	1497.37839	-2082.4678	190.72559	1351.20407	-2181.69754	183.81493	1343.927	-1919.95453	182.05257	1240.14488	-1911.50009	378.75271	1435.99213	-2013.56232	445.93479	1217.51747	-2067.67532	462.00024	1144.89761	-2118.26752	474.3362	1026.39481	-2076.84692	407.0956	917.20642	-1995.27008	449.60865	897.91046	-2058.5257	458.58917	862.21779	-1993.63342	-5.80851	1427.3349	-2027.79846	-79.27094	1280.56152	-2118.74237	-114.89222	1173.95531	-2149.65286	-137.49857	1038.27843	-2116.78543	-82.07006	936.42601	-2019.25308	-149.07648	922.41035	-2068.00568	-145.41049	888.53378	-2000.95505	291.04565	971.16562	-1973.8092	55.15052	974.37851	-1985.52917	236.65127	1006.15829	-2195.61081	93.92382	1018.62366	-2195.01495	277.13436	737.08862	-2175.50095	313.52148	492.64908	-2065.17899	283.17801	300.64388	-2077.5766	282.81515	131.06047	-2194.49509	223.19189	124.90198	-2238.03909	279.27475	81.894	-2025.87982	26.14517	713.16994	-2162.16644	4.18319	480.3521	-2047.9245	56.69044	290.59193	-2062.14386	7.42935	113.49932	-2180.48874	66.86444	114.11924	-2222.46902	36.051	79.71287	-1989.77219
29	1.433	268.60764	1668.60275	-1879.71237	81.64319	1666.23688	-1890.07004	285.39881	1650.76889	-2008.46603	81.80116	1657.18414	-2007.48108	239.77533	1412.05185	-1929.99023	116.60671	1411.03836	-1944.12064	262.16366	1496.51062	-2062.23495	110.89993	1496.63239	-2069.94675	192.71166	1351.95358	-2170.74646	184.45208	1341.50208	-1908.74054	182.9719	1237.593	-1901.6893	379.51736	1435.24323	-1999.99359	448.21079	1217.7877	-2055.93307	464.76826	1145.49225	-2106.78345	476.29173	1026.63094	-2065.63354	407.1246	916.9606	-1986.04279	450.81161	898.19031	-2048.42056	458.33252	861.89476	-1983.69659	-4.82782	1426.11496	-2017.10419	-78.30544	1281.86096	-2111.72379	-114.48068	1176.27075	-2145.22995	-137.2624	1039.86679	-2114.14642	-82.30037	937.24815	-2017.14828	-148.94405	923.47656	-2066.60309	-145.88428	889.25835	-1999.58176	292.87996	969.55406	-1967.59857	57.05658	972.79404	-1978.40134	238.22626	1006.59386	-2188.96912	95.48086	1019.02023	-2187.96066	279.53218	737.41165	-2171.52649	313.5598	491.71616	-2060.84564	282.32414	299.94827	-2075.36163	282.95296	130.90878	-2193.82019	223.67781	125.18816	-2237.84775	278.27505	82.36227	-2025.67062	27.44835	713.2608	-2157.63153	4.9976	479.42875	-2045.01617	56.92474	289.63266	-2060.9549	7.70253	113.51757	-2180.31357	67.20188	114.33784	-2222.46674	36.10537	79.09945	-1989.80957
30	1.467	269.07515	1666.64368	-1865.84671	82.17031	1663.83896	-1876.16211	285.90384	1648.74634	-1994.62921	82.18995	1654.534	-1993.61221	240.75886	1409.61227	-1916.43707	117.67615	1408.51746	-1931.05118	263.60033	1495.69397	-2047.84424	112.36619	1495.52628	-2056.02722	194.77695	1352.4263	-2158.75992	185.47485	1338.47595	-1896.45981	184.34208	1234.55513	-1890.85907	380.58353	1433.86948	-1985.37872	450.92743	1217.56462	-2042.92816	468.31455	1145.6736	-2094.00009	478.9978	1026.39572	-2053.03528	407.94849	916.61407	-1975.02823	452.68261	898.01903	-2036.75507	458.7394	861.33224	-1972.03918	-3.52217	1424.40369	-2004.69772	-76.85299	1282.81693	-2103.41904	-113.18083	1178.23814	-2139.6904	-136.2921	1041.12633	-2110.81573	-82.03044	937.19566	-2014.54758	-148.26604	924.0377	-2065.00977	-146.02779	889.04816	-1998.44757	295.32368	967.54959	-1960.18631	59.42008	970.56	-1970.14969	240.12974	1006.62285	-2181.11771	97.29912	1019.07974	-2179.65439	282.15347	737.27867	-2165.90515	313.88853	490.53894	-2057.49664	281.65876	298.91739	-2073.70499	282.72211	131.21293	-2192.30148	224.2206	125.73689	-2238.48343	276.22419	83.35153	-2025.8757	29.02765	713.15247	-2151.96976	6.13051	478.32668	-2042.22534	57.77634	288.47902	-2059.08218	8.14982	113.66967	-2180.0296	67.50141	114.57925	-2222.22565	36.23319	78.49805	-1989.95682
31	1.5	270.08011	1664.08035	-1850.85114	83.24183	1660.94025	-1861.2204	287.0842	1646.57791	-1979.99252	83.25018	1651.84586	-1978.68164	242.25863	1406.89056	-1902.22946	119.18541	1405.86197	-1917.27936	265.41798	1494.35867	-2032.67059	114.21006	1494.04816	-2041.427	197.32428	1352.30621	-2145.60791	186.88049	1335.5249	-1883.12042	186.11551	1231.3308	-1878.99475	382.12471	1432.13257	-1970.20874	454.0136	1216.87607	-2028.95981	472.41383	1145.30167	-2080.07477	482.14184	1025.68253	-2039.28864	409.33346	916.40472	-1962.34985	454.48502	896.99326	-2022.67014	459.81426	860.73364	-1958.71933	-1.7009	1422.19818	-1991.45386	-74.69203	1283.09357	-2093.45184	-111.4478	1179.54102	-2132.19635	-134.95756	1041.90102	-2106.27533	-81.65647	935.81169	-2011.92001	-147.43634	923.78029	-2062.69119	-145.56883	887.91725	-1996.63605	297.84275	965.37811	-1951.47629	61.86521	968.03734	-1960.54214	242.6413	1006.35391	-2171.67435	99.66959	1018.55576	-2169.80743	283.99832	737.4054	-2158.85498	314.45866	489.25003	-2053.77472	280.80765	297.7602	-2071.51764	283.12618	130.38214	-2192.26563	225.60528	126.16391	-2238.94989	273.02876	83.53909	-2025.6604	31.04294	712.33017	-2144.26193	7.83452	476.93829	-2037.16537	59.07555	287.06482	-2056.35223	8.48799	114.00758	-2179.44733	67.66767	115.00362	-2221.77521	35.98109	78.17529	-1990.08698
32	1.533	271.66653	1660.6604	-1834.82758	84.95928	1657.88971	-1845.06775	288.59125	1643.23502	-1964.0538	84.87305	1648.69247	-1962.453	244.14408	1403.86963	-1887.24274	121.27184	1401.87332	-1903.65799	267.6269	1492.3262	-2016.83075	116.43761	1491.94656	-2026.18134	200.1432	1351.52298	-2131.66687	188.57548	1332.12662	-1869.12125	188.20595	1227.94128	-1866.04935	384.00253	1429.71878	-1954.37744	458.06919	1215.85403	-2014.57489	477.16057	1144.57321	-2065.60272	485.59792	1024.74167	-2023.97095	410.92968	916.27579	-1947.59567	456.94439	896.18759	-2006.80984	461.1298	860.5584	-1942.83127	0.44243	1419.48196	-1977.48901	-72.19814	1282.51495	-2082.27524	-109.08699	1180.07835	-2123.39935	-133.28983	1041.94733	-2100.6813	-80.60646	933.44559	-2008.65463	-146.43589	922.88826	-2059.78394	-145.06688	885.96626	-1994.21341	300.99939	962.74361	-1941.50696	65.23293	965.24223	-1948.66226	245.15182	1005.55885	-2160.84335	101.96228	1017.57011	-2158.12698	286.43499	737.20856	-2151.24115	315.00801	487.44579	-2048.14651	280.24559	295.99478	-2068.66577	283.46237	130.03288	-2191.03973	226.77801	126.61391	-2239.1156	270.41245	83.24574	-2025.57785	34.14745	710.9343	-2134.15695	9.88189	474.53007	-2028.85681	59.99275	285.29299	-2052.53723	9.11416	114.53548	-2178.64624	68.2384	115.75515	-2221.0144	35.70027	77.87396	-1990.16327
33	1.567	273.80304	1656.77048	-1817.95975	87.10976	1653.97202	-1828.1337	290.66248	1639.3454	-1947.21527	87.01921	1644.72015	-1945.36316	246.73809	1400.1149	-1872.10709	123.35322	1397.9245	-1888.06946	270.05535	1489.50058	-2000.09232	118.96645	1489.00482	-2009.95972	203.23132	1349.60129	-2116.43997	191.15103	1328.04428	-1853.80096	190.86626	1223.82156	-1852.0137	386.17947	1426.54587	-1937.74612	462.38449	1214.21761	-1999.25262	482.69432	1143.39577	-2050.00854	489.51244	1023.55637	-2006.81885	412.35306	916.4032	-1930.61981	459.65603	895.32883	-1988.53333	462.21687	860.47188	-1924.30969	2.85803	1416.05499	-1962.75742	-69.29288	1281.29486	-2070.39139	-106.02737	1179.9218	-2114.13666	-131.00956	1041.33858	-2094.50317	-80.16805	931.11763	-2003.77808	-144.93449	921.63925	-2056.34552	-144.84264	883.41148	-1991.52969	305.0066	959.73618	-1930.38834	69.35037	961.73065	-1935.48416	247.05999	1004.14986	-2148.9502	103.78701	1015.7373	-2144.82239	289.72919	736.1158	-2142.64725	315.89619	485.02182	-2041.4621	280.53709	293.95966	-2064.87549	283.53365	129.34873	-2189.60129	227.19957	127.08343	-2238.07938	269.77524	80.92454	-2024.80103	37.26834	708.61305	-2121.84464	11.66855	471.63754	-2018.302	60.92894	282.89762	-2047.202	9.80343	115.80645	-2177.76672	69.12628	117.34538	-2219.84772	35.60341	77.58183	-1990.15442
34	1.6	276.17603	1651.94061	-1799.95316	89.45306	1649.17847	-1810.33539	293.05277	1634.70596	-1929.24408	89.69542	1639.93927	-1927.03369	249.3725	1395.24033	-1855.0618	126.08482	1392.77496	-1871.75507	272.82217	1485.61905	-1982.603	122.02901	1484.97406	-1992.69165	206.46021	1346.64505	-2100.09521	194.11945	1322.95013	-1837.60941	194.22781	1218.64883	-1836.76895	388.69305	1422.15866	-1920.64316	467.48196	1211.72424	-1982.9483	489.36806	1141.58554	-2033.72223	493.94264	1021.75644	-1988.06473	413.90812	917.41791	-1910.74554	461.97552	894.7776	-1968.04184	462.65957	860.32074	-1903.21304	5.79976	1411.6684	-1946.9725	-65.68285	1279.97391	-2058.05939	-102.64503	1179.67018	-2104.46655	-128.36568	1040.70724	-2087.9631	-78.95251	928.42941	-1998.57346	-143.16722	920.31151	-2052.35184	-144.31038	881.10069	-1988.01697	308.81836	955.95734	-1917.66769	73.07357	957.32262	-1921.79413	248.8739	1001.53397	-2136.08032	105.52145	1012.35367	-2131.09665	292.24964	734.53339	-2132.53738	317.64582	482.14359	-2035.20996	281.89713	291.46982	-2061.41479	283.08228	128.68999	-2188.47168	226.76847	127.46325	-2236.5596	270.81244	77.48169	-2023.28461	39.63282	704.00856	-2106.54587	12.76412	468.38234	-2004.56558	61.93655	280.14688	-2038.07404	11.05235	118.56036	-2175.53787	70.68572	121.40718	-2217.10052	35.33134	77.37662	-1989.79034
35	1.633	278.38509	1646.9838	-1780.30151	91.89417	1644.09119	-1791.20529	295.62363	1629.76608	-1909.63638	92.2407	1634.90036	-1907.90344	251.9817	1389.46259	-1836.68579	128.88162	1387.32132	-1854.07303	275.96674	1481.02325	-1963.97903	125.063	1480.91019	-1974.53339	209.82477	1343.28796	-2082.80334	196.8754	1317.21207	-1820.5246	196.92455	1212.93297	-1820.80795	391.45889	1417.18643	-1903.72726	473.91579	1208.32779	-1965.80444	497.01599	1138.80081	-2015.80429	498.63914	1019.45015	-1967.09198	414.4812	918.54492	-1888.85101	463.92239	894.1523	-1944.74625	461.86771	860.62325	-1878.89893	8.76225	1406.78864	-1930.24506	-62.11772	1278.44261	-2045.0705	-99.17832	1179.43657	-2094.07883	-125.74483	1040.24254	-2080.82153	-77.97736	926.00624	-1993.48724	-141.5149	919.11758	-2047.73529	-143.48892	879.38362	-1983.78036	311.72852	951.58958	-1903.42819	76.26626	953.16666	-1907.82227	251.33539	998.069	-2122.40433	107.52194	1007.85614	-2117.53281	294.07677	733.49594	-2121.29684	320.19146	479.36264	-2029.92798	283.44757	289.04139	-2058.89374	282.77983	128.438	-2188.00781	226.30373	128.26002	-2236.0289	271.24956	76.35378	-2022.74094	41.13473	698.03818	-2087.18552	13.68155	465.23544	-1980.82962	62.85248	279.70837	-2023.57605	13.86119	126.18654	-2171.09222	74.74644	131.73782	-2210.95139	34.90453	77.1373	-1988.62762
36	1.667	280.56896	1642.38159	-1759.0947	94.03162	1638.99948	-1770.45731	298.12408	1625.41656	-1888.38684	94.73969	1630.10193	-1887.12463	254.30077	1384.21677	-1817.453	130.75237	1382.4469	-1835.07645	278.98308	1476.87363	-1943.39508	128.11834	1477.42111	-1954.87244	213.42434	1340.98938	-2064.28177	198.56247	1311.88492	-1802.72125	198.89368	1207.58415	-1803.67279	394.06281	1411.6481	-1882.95822	480.3281	1205.10323	-1946.43585	505.07233	1136.32774	-1995.0766	502.72305	1018.013	-1942.99362	413.01647	920.73067	-1865.26047	465.39204	893.51242	-1916.82068	459.31599	862.93449	-1850.79041	11.53214	1402.75726	-1912.65579	-58.55965	1277.89856	-2031.14288	-95.91969	1180.80055	-2083.78891	-122.87647	1041.20872	-2073.66898	-77.03795	925.1683	-1986.74713	-139.191	919.53033	-2043.51929	-142.60797	878.68217	-1980.25879	313.95189	946.70052	-1889.53949	78.86041	950.88768	-1893.90671	254.27938	995.46776	-2107.94662	110.43571	1004.84009	-2103.77029	295.79527	732.15355	-2109.66766	323.07198	476.46782	-2023.07632	285.14166	287.16566	-2054.85916	283.43689	128.31424	-2187.35229	227.16681	129.02656	-2235.33524	271.43185	75.941	-2022.73941	40.82429	693.12027	-2062.63077	13.90876	465.81776	-1945.89401	63.13935	284.32287	-2001.64642	19.3111	142.86886	-2162.72736	81.89536	152.133	-2198.75351	34.70194	76.65363	-1986.91772
